<?xml version="1.0" encoding="UTF-8"?>
<svg width="100px" height="100px" viewBox="0 0 100 100" version="1.1" xmlns="http://www.w3.org/2000/svg" xmlns:xlink="http://www.w3.org/1999/xlink">
    <title>main_5</title>
    <defs>
        <path d="M97.5555556,15.3092105 C98.5163399,14.9210526 99.6339869,15.5131579 99.5816993,16.6052632 L98.6993464,35.7302632 C98.6797386,36.1842105 98.4313725,36.5789474 98.0653595,36.8157895 C98.3333333,37.0855263 98.4836601,37.4605263 98.4575163,37.8421053 L97.4379085,55.5921053 C97.4183007,55.9473684 97.254902,56.2697368 97.0130719,56.5 C97.3594771,56.7828947 97.5620915,57.2236842 97.5163399,57.6776316 L96.5163399,74.1513158 C96.4901961,74.6710526 96.1633987,75.1052632 95.7189542,75.3157895 L83.9738562,81.5197368 C83.5228758,81.7565789 82.9934641,81.7302632 82.5816993,81.5 C82.5490196,82.1381579 82.4640523,82.6184211 81.8300654,82.9539474 L68.1111111,90.2631579 C67.6928105,90.4868421 67.2091503,90.4868421 66.8104575,90.2960526 C66.7254902,90.6907895 66.4640523,91.0197368 66.1176471,91.2039474 L51.4836601,99.2894737 C50.8366013,99.6447368 50.0261438,99.4539474 49.6143791,98.875 C49.1633987,99.1578947 48.5816993,99.1776316 48.1176471,98.9144737 L32.3006536,89.9671053 C31.8954248,89.7368421 31.6535948,89.3421053 31.6078431,88.9276316 C31.2679739,89.0065789 30.9019608,88.9539474 30.5947712,88.7894737 L17.2745098,81.6644737 C16.8431373,81.4276316 16.5816993,81.0131579 16.5490196,80.5657895 C16.1568627,80.7171053 15.7124183,80.6907895 15.3464052,80.4934211 L4.2875817,74.6315789 C3.81045752,74.375 3.54248366,73.8947368 3.54901961,73.4078947 L2.90849673,58.1315789 C2.88888889,57.6052632 3.17647059,57.1381579 3.60784314,56.8947368 C3.08496732,56.6118421 2.71895425,56.2434211 2.71895425,55.5986842 L1.87581699,37.5592105 C1.85620915,37.0723684 2.09803922,36.6315789 2.48366013,36.375 C1.92156863,36.0986842 1.50980392,35.7171053 1.52941176,35.0263158 L0.653594771,16.4605263 C0.62745098,15.8355263 1.03267974,15.2894737 1.61437908,15.0986842 C1.65359477,14.4802632 2.11111111,13.9802632 2.7124183,13.8486842 L18.5686275,9.17763158 C18.9477124,9.06578947 19.1437908,9.11842105 19.503268,9.21052632 C19.6535948,8.74342105 20.0457516,8.40131579 20.5163399,8.28947368 L35.379085,4.09868421 C35.9607843,3.94078947 36.5751634,4.22368421 37.1372549,4.40131579 C37.3006536,3.94736842 37.6993464,3.625 38.1568627,3.51973684 L49.9542484,0.0592105263 C50.2287582,-0.0197368421 50.5098039,-0.0197368421 50.7647059,0.0592105263 L62.2679739,3.33552632 C62.751634,3.47368421 63.1045752,3.84210526 63.2352941,4.28289474 C63.4248366,4.26315789 63.6078431,4.28947368 63.7843137,4.34210526 L78.6013072,8.80263158 C79.1503268,8.96710526 79.5228758,9.42105263 79.5882353,9.94078947 C80.1437908,9.76973684 80.7124183,9.49342105 81.2875817,9.65789474 L96.5424837,14.0921053 C97.124183,14.2565789 97.5098039,14.7565789 97.5555556,15.3092105 Z" id="path-1"></path>
    </defs>
    <g id="Page-1" stroke="none" stroke-width="1" fill="none" fill-rule="evenodd">
        <g id="main_5">
            <g id="Background">
                <mask id="mask-2" fill="white">
                    <use xlink:href="#path-1"></use>
                </mask>
                <g id="Clip-2"></g>
                <polygon id="Fill-1" fill="#000000" mask="url(#mask-2)" points="-2.61557451 102.758158 102.851419 102.758158 102.851419 -3.28947368 -2.61557451 -3.28947368"></polygon>
            </g>
            <g id="Right" transform="translate(50.000000, 16.000000)">
                <polygon id="R1" fill="#D0021B" points="0.408804306 19.0487636 17.1302191 12.9593353 16.7939446 33.5737636 0.48792772 40.0124773"></polygon>
                <polygon id="R2" fill="#D0021B" points="19.0885236 12.4387024 33.9703191 6.56016334 33.4955786 25.9487976 18.8115917 32.6379424"></polygon>
                <polygon id="R3" fill="#4A4A4A" points="36.0275279 5.80887024 48.5883699 0.833200998 47.6982314 19.9911751 35.2033256 25.1711434"></polygon>
                <polygon id="R4" fill="#4A4A4A" points="0.586831988 42.1411411 16.7741638 35.669476 16.1543637 54.6692831 0.586831988 62.4194646"></polygon>
                <polygon id="R5" fill="#D0021B" points="18.8709343 34.8325091 33.179085 28.4135662 32.1306997 47.1827132 18.2115725 53.9509415"></polygon>
                <polygon id="R6" fill="#4A4A4A" points="34.8670511 27.6029605 47.4542676 22.0868875 46.4256632 39.8740812 34.0098808 45.9766901"></polygon>
                <polygon id="R7" fill="#4A4A4A" points="0.718704344 64.4295032 16.2994233 56.6925023 15.5543445 74.4269737 0.791234141 82.5198503"></polygon>
                <polygon id="R8" fill="#4A4A4A" points="18.323664 56.0466538 32.2098231 49.219113 31.4251826 66.149569 17.5785852 73.4713816"></polygon>
                <polygon id="R9" fill="#4A4A4A" points="34.2340638 48.2635209 46.5113802 41.9104809 45.4959631 58.4652904 33.5878893 64.7128857"></polygon>
            </g>
            <g id="Left" transform="translate(1.000000, 16.000000)">
                <polygon id="L1" fill="#009A0E" points="30.814802 12.8736615 47.5362168 18.9564995 47.5098424 40.0849705 31.4807574 33.2376588"></polygon>
                <polygon id="L2" fill="#009A0E" points="14.3769127 6.40199637 28.9356209 12.1487296 29.6345444 32.5720395 15.2274894 26.1992287"></polygon>
                <polygon id="L3" fill="#4A4A4A" points="0.649000384 0.68821461 12.4845444 5.76932849 13.3219339 25.1316016 1.53254517 19.3782781"></polygon>
                <polygon id="L4" fill="#4A4A4A" points="31.3620723 35.2081556 47.5757785 42.1740926 47.5625913 62.4128743 31.9818724 54.8604015"></polygon>
                <polygon id="L5" fill="#009A0E" points="15.4055171 28.5980944 29.502672 34.4700431 30.0960977 53.7202813 16.1044406 47.1431715"></polygon>
                <polygon id="L6" fill="#4A4A4A" points="1.88200692 21.8232759 13.5527105 27.4382033 14.2252595 46.0491833 2.73917724 39.959755"></polygon>
                <polygon id="L7" fill="#4A4A4A" points="31.9225298 56.9956556 47.740619 64.5876701 47.826336 82.1573843 31.8697809 73.2011797"></polygon>
                <polygon id="L8" fill="#009A0E" points="16.1637832 49.1993421 29.9971934 55.8621257 30.1158785 72.0017468 16.6780854 64.8578721"></polygon>
                <polygon id="L9" fill="#4A4A4A" points="2.92379854 42.4377042 14.3307574 48.1580762 14.7263745 63.6913907 3.57656671 57.8128516"></polygon>
            </g>
            <g id="Up" transform="translate(3.000000, 0.000000)">
                <polygon id="Up1" fill="#FFFFFF" points="30.0254506 27.0033443 46.4396118 21.0272478 62.9710636 26.7945724 46.4656764 32.7184759"></polygon>
                <polygon id="Up2" fill="#FFFFFF" points="49.0786492 20.2900219 64.1309368 15.4099781 79.5546445 20.3356908 65.1800357 26.1095395"></polygon>
                <polygon id="Up3" fill="#4A4A4A" points="66.3724896 14.4770285 77.7887701 10.8822368 92.997445 15.2794956 81.6789067 19.657182"></polygon>
                <polygon id="Up4" fill="#4A4A4A" points="49.0069717 9.12072368 60.32551 5.60422149 75.0910873 10.0275768 64.1439691 13.6288925"></polygon>
                <polygon id="Up5" fill="#FFFFFF" points="32.7687463 14.5683662 46.954387 9.83837719 61.4788671 14.4313596 46.7589028 19.3244518"></polygon>
                <polygon id="Up6" fill="#FFFFFF" points="13.226837 20.3095943 29.7908695 15.3186404 43.9243811 20.0877741 27.9533175 25.8877193"></polygon>
                <polygon id="Up7" fill="#4A4A4A" points="0.175004951 15.0576754 16.074391 10.3994518 27.5232521 14.4444079 11.526124 19.6310855"></polygon>
                <polygon id="Up8" fill="#FFFFFF" points="17.9445237 9.53826754 32.8208754 5.36935307 44.6998019 9.13377193 30.2600317 13.8246162"></polygon>
                <polygon id="Up9" fill="#FFFFFF" points="35.512042 4.81480263 47.3649039 1.35701754 58.8267974 4.61255482 47.0651614 8.46178728"></polygon>
            </g>
        </g>
    </g>
</svg>