<?xml version="1.0" encoding="UTF-8" standalone="no"?><svg xmlns:android="http://schemas.android.com/apk/res/android" height="11381.18" width="11106.39" xmlns="http://www.w3.org/2000/svg">
    <path d="M10932,1775c74,24 171,183 168,253 -87,2170 -177,4340 -262,6511 -2,57 -31,112 -85,140 -1723,893 -3445,1786 -5168,2679 -51,26 -108,20 -155,-6l-5036,-2791c-58,-32 -83,-97 -86,-161 -100,-2175 -202,-4351 -302,-6526 -4,-85 33,-186 122,-213 1801,-549 3601,-1099 5402,-1649 34,-10 68,-8 99,3 1767,588 3534,1178 5303,1760z" fill="#000000" fill-opacity="1.0"/>
    <path d="M3652,3389l1675,683l11,2191l-1649,-715z" fill="#E31E24"/>
    <path d="M1867,2661l1477,606l35,2124l-1436,-624z" fill="#E31E24"/>
    <path d="M320,2035l1265,506l59,2079l-1234,-544z" fill="#E31E24"/>
    <path d="M3692,5849l1662,732l-11,2189l-1619,-799z" fill="#E31E24"/>
    <path d="M1945,5067l1443,659l30,2074l-1403,-678z" fill="#E31E24"/>
    <path d="M425,4406l1234,548l63,2008l-1205,-590z" fill="#E31E24"/>
    <path d="M3726,8269l1622,816l9,1882l-1597,-891z" fill="#E31E24"/>
    <path d="M2016,7428l1410,712l27,1772l-1380,-780z" fill="#E31E24"/>
    <path d="M533,6700l1201,599l47,1680l-1175,-656z" fill="#E31E24"/>
    <path d="M5620,4076l1644,-625l-28,2183l-1599,646z" fill="#009846"/>
    <path d="M7569,3323l1518,-550l-44,2100l-1509,628z" fill="#009846"/>
    <path d="M9373,2661l1412,-531l-81,2046l-1373,577z" fill="#009846"/>
    <path d="M5644,6599l1594,-660l-31,2082l-1554,768z" fill="#009846"/>
    <path d="M7536,5811l1492,-611l-29,1919l-1495,740z" fill="#009846"/>
    <path d="M9324,5061l1377,-564l-77,1814l-1332,672z" fill="#009846"/>
    <path d="M5655,9120l1545,-798l-28,1863l-1518,792z" fill="#009846"/>
    <path d="M7500,8201l1491,-752l-37,1820l-1474,760z" fill="#009846"/>
    <path d="M9274,7302l1329,-657l-66,1803l-1284,675z" fill="#009846"/>
    <path d="M3923,3170l1564,-543l1543,593l-1545,594z" fill="#FFED00"/>
    <path d="M5920,2477l1346,-470l1505,561l-1320,497z" fill="#FFED00"/>
    <path d="M7708,1861l1233,-428l1499,502l-1240,472z" fill="#FFED00"/>
    <path d="M5951,1212l1153,-391l1353,456l-1200,421z" fill="#FFED00"/>
    <path d="M4176,1806l1322,-442l1318,485l-1335,466z" fill="#FFED00"/>
    <path d="M2191,2469l1539,-516l1321,510l-1553,542z" fill="#FFED00"/>
    <path d="M628,1835l1540,-477l1111,429l-1520,510z" fill="#FFED00"/>
    <path d="M2639,1218l1342,-409l1060,389l-1308,441z" fill="#FFED00"/>
    <path d="M4456,662l1112,-338l1050,343l-1122,381z" fill="#FFED00"/>
</svg>