<?xml version="1.0" encoding="UTF-8"?>
<svg width="100px" height="97px" viewBox="0 0 100 97" version="1.1" xmlns="http://www.w3.org/2000/svg" xmlns:xlink="http://www.w3.org/1999/xlink">
    <title>axis_6_1</title>
    <g id="Page-1" stroke="none" stroke-width="1" fill="none" fill-rule="evenodd">
        <g id="axis_6_1" fill-rule="nonzero">
            <polygon id="Path" fill="#000000" points="13.8387097 18.8387097 59.8064516 0.193548387 85.1612903 27.1290323 96.8709677 29.2903226 91.3225806 33.1290323 92.6774194 34.9677419 88.0645161 85.5483871 39.8709677 94.5483871 0.193548387 68.0967742"></polygon>
            <polygon id="Path" fill="#0062AC" points="14.1612903 20.9677419 23 29.4516129 2.80645161 62.3870968"></polygon>
            <polygon id="Path" fill="#0062AC" points="33.4193548 12.1290323 24.2903226 27.2258065 16.0967742 19.2580645"></polygon>
            <polygon id="Path" fill="#696969" points="23.8709677 30.2580645 34.8387097 35.483871 18.8387097 54.6129032"></polygon>
            <polygon id="Path" fill="#0062AC" points="35.2258065 11.9354839 52.7419355 25.6451613 40.4516129 35.3548387 36.4193548 37.483871 36.7419355 34.4193548 27.516129 30.1935484 25.3870968 28.0322581"></polygon>
            <polygon id="Path" fill="#696969" points="37.1612903 10.4193548 58 1.93548387 54.1935484 23.1935484"></polygon>
            <polygon id="Path" fill="#E31E24" points="4.38709677 69.7741935 19.6774194 72.7096774 20.7419355 79.6129032 25.4516129 76.8064516 21.1935484 81"></polygon>
            <polygon id="Path" fill="#FFED00" points="19.1935484 57 35.7741935 42.1612903 47.3548387 55.9677419 21.5483871 77.3870968"></polygon>
            <polygon id="Path" fill="#0062AC" points="38.9354839 39.6774194 65.2580645 42.5483871 53.3225806 52.5483871 48.5806452 55.3225806"></polygon>
            <polygon id="Path" fill="#FFED00" points="53.5483871 29.5483871 66.3225806 39.6774194 39.6129032 36.7096774"></polygon>
            <polygon id="Path" fill="#696969" points="60.4516129 2.58064516 75.3225806 18.0967742 61.2903226 22.6451613 57.2258065 22"></polygon>
            <polygon id="Path" fill="#E31E24" points="25 83.4516129 59.2258065 89.9677419 39.8709677 93.5806452"></polygon>
            <polygon id="Path" fill="#E31E24" points="30.7419355 74.8064516 57.7096774 80.1290323 60.6774194 89.2580645 23.483871 81.9354839"></polygon>
            <polygon id="Path" fill="#696969" points="49.5806452 56.7741935 57.3548387 78.9032258 31.7096774 73.7419355"></polygon>
            <polygon id="Path" fill="#FFED00" points="52.8064516 54.4516129 66.8387097 48 85.516129 81.7096774"></polygon>
            <polygon id="Path" fill="#0062AC" points="59 24.6451613 92.8387097 30.6774194 67.8387097 45 69.8387097 41.1612903 63.3870968 35.516129"></polygon>
            <polygon id="Path" fill="#FFED00" points="78.3225806 21.3225806 83.516129 26.7419355 78.7741935 26.0645161"></polygon>
            <polygon id="Path" fill="#E31E24" points="60.1612903 80.6129032 84.0322581 85.3548387 63.0322581 89.2580645"></polygon>
            <polygon id="Path" fill="#E31E24" points="52.8064516 57.9354839 84.5806452 84.1612903 60.0645161 79.4193548"></polygon>
            <polygon id="Path" fill="#696969" points="80.2258065 41.7419355 86.6774194 81.1290323 68.0645161 47.2258065"></polygon>
            <polygon id="Path" fill="#FFED00" points="81.3548387 41.1935484 91.3548387 36.6451613 87.6774194 79.6129032"></polygon>
            <polygon id="Path" fill="#FFED00" points="90.3548387 33.483871 90.7096774 34.8387097 87.2580645 36"></polygon>
        </g>
    </g>
</svg>