<?xml version="1.0" encoding="UTF-8"?>
<svg width="100px" height="98px" viewBox="0 0 100 98" version="1.1" xmlns="http://www.w3.org/2000/svg" xmlns:xlink="http://www.w3.org/1999/xlink">
    <title>axis_1_4</title>
    <g id="Page-1" stroke="none" stroke-width="1" fill="none" fill-rule="evenodd">
        <g id="axis_1_4" fill-rule="nonzero">
            <polygon id="Path" fill="#000000" points="25 22.6444444 62.4 0.155555556 98.8666667 41.9111111 82.3555556 84.2666667 40.5777778 97.3111111 0.155555556 59.4666667"></polygon>
            <polygon id="Path" fill="#FFFFFF" points="61.4888889 4.62222222 61.0666667 39.1333333 41.8222222 38.2444444"></polygon>
            <polygon id="Path" fill="#696969" points="63.5111111 4.55555556 80.0888889 39.8666667 63.1111111 39.3111111"></polygon>
            <polygon id="Path" fill="#696969" points="65.8888889 5.6 96.5555556 40.6 81.8 39.9555556"></polygon>
            <polygon id="Path" fill="#FFFFFF" points="42.8888889 41.0666667 61.0222222 41.6666667 60.9111111 59.8666667"></polygon>
            <polygon id="Path" fill="#FFFFFF" points="63.2666667 41.8222222 81.2222222 42.3111111 89.5555556 60.3555556 62.9555556 61.0888889"></polygon>
            <polygon id="Path" fill="#696969" points="82.9333333 42.4 97.0444444 42.7333333 90.8444444 59.2"></polygon>
            <polygon id="Path" fill="#696969" points="89.5555556 62.7111111 81.9555556 81.8 64.5777778 63.6222222"></polygon>
            <polygon id="Path" fill="#EF7F1A" points="59.5333333 3.4 40.2666667 35.8666667 42.1555556 19.8"></polygon>
            <polygon id="Path" fill="#696969" points="58.6222222 3 42.4 18.4222222 43.2 12.4666667"></polygon>
            <polygon id="Path" fill="#696969" points="39.9333333 22.0888889 37.9111111 38.3333333 22.2444444 38.8222222"></polygon>
            <polygon id="Path" fill="#696969" points="14.8222222 38.9777778 41.1777778 14 40.3555556 20.2888889 21.1777778 38.6444444"></polygon>
            <polygon id="Path" fill="#696969" points="25.4222222 22.9111111 39.3777778 14.6666667 16.0444444 36.8444444"></polygon>
            <polygon id="Path" fill="#EF7F1A" points="3.26666667 57.1333333 20.5777778 40.4888889 35.2222222 40.6"></polygon>
            <polygon id="Path" fill="#696969" points="13.6 40.4444444 19.2222222 40.5333333 3.4 55.9555556"></polygon>
            <polygon id="Path" fill="#009846" points="37.7333333 42.1555556 38.2222222 60.6 4.68888889 58.9555556"></polygon>
            <polygon id="Path" fill="#009846" points="40.6 43.2888889 58.7111111 61.6666667 40.8444444 61"></polygon>
            <polygon id="Path" fill="#696969" points="38.4 62.4666667 38.7111111 78.8666667 5.17777778 61.0888889"></polygon>
            <polygon id="Path" fill="#009846" points="40.8444444 62.9555556 59.8444444 63.8666667 58.7111111 89.5555556 41.3333333 80.3333333"></polygon>
            <polygon id="Path" fill="#696969" points="62.4666667 65.5777778 80 83.5111111 61.2444444 89.2222222"></polygon>
            <polygon id="Path" fill="#696969" points="39.0444444 81 39.2888889 94.5333333 6 63.2"></polygon>
            <polygon id="Path" fill="#696969" points="41.2444444 82.0444444 57.3111111 90.5333333 41.7333333 95.6"></polygon>
        </g>
    </g>
</svg>