<?xml version="1.0" encoding="UTF-8"?>
<svg width="91px" height="100px" viewBox="0 0 91 100" version="1.1" xmlns="http://www.w3.org/2000/svg" xmlns:xlink="http://www.w3.org/1999/xlink">
    <title>axis_7</title>
    <g id="Page-1" stroke="none" stroke-width="1" fill="none" fill-rule="evenodd">
        <g id="axis_7" fill-rule="nonzero">
            <polygon id="Path" fill="#000000" points="12.7954545 21.2045455 8.04545455 18.5681818 19.3181818 18.4090909 61.3863636 0.159090909 74.0909091 18.3181818 79.6363636 9.45454545 79.6363636 26.6818182 88.7727273 39.8863636 87.8409091 84.0454545 35.8181818 97.7954545 0.136363636 63.3863636"></polygon>
            <polygon id="Path" fill="#FFED00" points="40.1136364 34.1363636 59.4318182 4.40909091 54.2727273 41.4772727"></polygon>
            <polygon id="Path" fill="#FFED00" points="11.6363636 19.2045455 48.8636364 19.3636364 38.5227273 33.3636364"></polygon>
            <polygon id="Path" fill="#FFED00" points="21.5454545 18.3181818 55.75 3.63636364 36.4318182 18.2954545"></polygon>
            <polygon id="Path" fill="#FFED00" points="28.4318182 51.9772727 38.7954545 36.25 52.0909091 43.5227273"></polygon>
            <polygon id="Path" fill="#FFED00" points="9.04545455 40.2045455 24.4545455 28.6363636 37.1818182 35.4318182 26.4545455 52.1136364"></polygon>
            <polygon id="Path" fill="#FFED00" points="13.6818182 22.7727273 23.2272727 28.0454545 8.84090909 38.8181818"></polygon>
            <polygon id="Path" fill="#EF7F1A" points="1.75 61.7045455 7.63636364 42.4772727 23.6818182 53.7272727"></polygon>
            <polygon id="Path" fill="#E31E24" points="62.1136364 3.5 69.3409091 26.75 57.2727273 40.1818182"></polygon>
            <polygon id="Path" fill="#E31E24" points="60.1590909 44.3863636 78.4772727 14.0227273 77.9545455 53.8181818"></polygon>
            <polygon id="Path" fill="#E31E24" points="59.4318182 46.7045455 78.3863636 56.2727273 86.2272727 80.5"></polygon>
            <polygon id="Path" fill="#E31E24" points="79.9545455 56.9318182 87.4772727 61.0227273 87.1363636 79.9318182"></polygon>
            <polygon id="Path" fill="#E31E24" points="79.4772727 33.8863636 87.2727273 58.4545455 79.2272727 54.2272727"></polygon>
            <polygon id="Path" fill="#E31E24" points="63.4772727 4.52272727 73.8409091 19.4090909 70.0909091 25.4545455"></polygon>
            <polygon id="Path" fill="#E31E24" points="79.7045455 27.7272727 88.1136364 39.8409091 87.7727273 56.6590909 79.5909091 30.9772727"></polygon>
            <polygon id="Path" fill="#0062AC" points="29.25 54.7272727 52.75 46.5681818 47.1363636 63.3181818"></polygon>
            <polygon id="Path" fill="#0062AC" points="49.2954545 64.6363636 56 47.0681818 83.3181818 81"></polygon>
            <polygon id="Path" fill="#0062AC" points="45.6363636 66.8181818 67.2727273 74.4090909 43.25 81.6363636"></polygon>
            <polygon id="Path" fill="#0062AC" points="20.7272727 80.9318182 27.5909091 56.3409091 45.9772727 64.8863636 44.3181818 65.4772727 40.4772727 81.8181818"></polygon>
            <polygon id="Path" fill="#FFED00" points="2.47727273 64.1363636 24.5454545 56.3863636 18.5 79.7045455"></polygon>
            <polygon id="Path" fill="#0062AC" points="42.3863636 83.1363636 81.5 84.7045455 37.6590909 96.25"></polygon>
            <polygon id="Path" fill="#0062AC" points="21.7045455 82.6363636 39.9545455 83.1590909 35.5454545 95.75"></polygon>
        </g>
    </g>
</svg>