<?xml version="1.0" encoding="UTF-8"?>
<svg width="100px" height="100px" viewBox="0 0 100 100" version="1.1" xmlns="http://www.w3.org/2000/svg" xmlns:xlink="http://www.w3.org/1999/xlink">
    <title>axis_3_2</title>
    <g id="Page-1" stroke="none" stroke-width="1" fill="none" fill-rule="evenodd">
        <g id="axis_3_2" fill-rule="nonzero">
            <polygon id="Path" fill="#000000" points="40.7666667 0.266666667 58.5333333 12.7666667 72.5666667 28.1 96.9333333 41.8666667 89.3666667 48.8 92.3333333 59.2666667 55.8333333 97.5 21.7 71.8666667 12.9333333 57.8333333 2.7 55.6333333 8.26666667 50.3333333 0.233333333 37.6 37.4 5.96666667"></polygon>
            <polygon id="Path" fill="#696969" points="36.3333333 8.2 27.2 24.8 5.7 34.3333333"></polygon>
            <polygon id="Path" fill="#696969" points="39.3666667 4.96666667 37.5 38.1666667 21.2333333 37.4666667"></polygon>
            <polygon id="Path" fill="#696969" points="41.4333333 11.8 58.0333333 20.9666667 58.1 39.1666667 40.1 38.5333333"></polygon>
            <polygon id="Path" fill="#696969" points="43.9 3.26666667 58.1666667 13.2666667 58.4666667 19.1666667"></polygon>
            <polygon id="Path" fill="#696969" points="60.3333333 22.6333333 93.0666667 40.7 60.5666667 39.3666667"></polygon>
            <polygon id="Path" fill="#696969" points="59.7 14.8 71.3 27.5333333 60.1666667 21.0333333"></polygon>
            <polygon id="Path" fill="#009846" points="3.16666667 41.1333333 12.6666667 51.2 11.0666667 53.8"></polygon>
            <polygon id="Path" fill="#696969" points="20.0666667 39.6 37.4333333 40.4666667 36.5666667 59.3666667 10.9333333 56"></polygon>
            <polygon id="Path" fill="#FFED00" points="39.9 40.3 57.3333333 40.8333333 38.7333333 58.4333333"></polygon>
            <polygon id="Path" fill="#EF7F1A" points="59.0333333 43.1666667 58.0333333 59.9666667 40.7333333 60.7333333"></polygon>
            <polygon id="Path" fill="#696969" points="60.7666667 41.1333333 92.6 42.3 60.8666667 60.3"></polygon>
            <polygon id="Path" fill="#696969" points="94.0333333 43.9333333 76.9 59.4333333 63.2333333 61.8"></polygon>
            <polygon id="Path" fill="#EF7F1A" points="78.6 58.7666667 88.2666667 49.9 90.7666667 58.3"></polygon>
            <polygon id="Path" fill="#009846" points="14.4333333 58.9666667 34.6 80.8666667 22.3 71.5666667"></polygon>
            <polygon id="Path" fill="#009846" points="14.6 58 19.6 58.9666667 36.5 77.3333333 36.6666667 82.2"></polygon>
            <polygon id="Path" fill="#009846" points="21 59.1333333 35.9 62.9666667 36.3666667 75.9666667"></polygon>
            <polygon id="Path" fill="#009846" points="38.2666667 78.9333333 52.4666667 94.3 38.5666667 83.7333333"></polygon>
            <polygon id="Path" fill="#009846" points="38.2666667 65.8 53.6333333 94.6333333 38.4333333 77.9666667"></polygon>
            <polygon id="Path" fill="#EF7F1A" points="39.8666667 63.3 57.6333333 62.4333333 55.2666667 93.2333333"></polygon>
            <polygon id="Path" fill="#EF7F1A" points="59.4666667 63.3 67.5333333 61.9 75 61.3666667 57.1 93.4"></polygon>
            <polygon id="Path" fill="#EF7F1A" points="76.9 61.2666667 89.8333333 60.5 59.2333333 92.4666667"></polygon>
        </g>
    </g>
</svg>