<?xml version="1.0" encoding="UTF-8"?>
<svg width="97px" height="100px" viewBox="0 0 97 100" version="1.1" xmlns="http://www.w3.org/2000/svg" xmlns:xlink="http://www.w3.org/1999/xlink">
    <title>axis_5</title>
    <g id="Page-1" stroke="none" stroke-width="1" fill="none" fill-rule="evenodd">
        <g id="axis_5" fill-rule="nonzero">
            <polygon id="Path" fill="#000000" points="21.2258065 27.5806452 57.0322581 0.225806452 69.1935484 12.3548387 81 14.6451613 86.6129032 29.8709677 94.6451613 37.9032258 90.9032258 56.1290323 64.8387097 87.0967742 64.7419355 97.8709677 56.8387097 91.3548387 44.2903226 97.3870968 2.19354839 63.0322581 12.2258065 44.7419355 10.9354839 42.7096774 0.677419355 43.2258065 18.7419355 32.7419355"></polygon>
            <polygon id="Path" fill="#E31E24" points="21.8387097 27.8064516 34.7419355 17.9354839 25.483871 28.5806452 19.6129032 32.1612903"></polygon>
            <polygon id="Path" fill="#E31E24" points="37 16.4516129 37.6774194 21.3870968 27.1290323 27.8064516"></polygon>
            <polygon id="Path" fill="#E31E24" points="38.6774194 15 53.4193548 3.67741935 39.3870968 19.3870968"></polygon>
            <polygon id="Path" fill="#E31E24" points="4.96774194 59.1935484 12.4193548 45.4516129 14.2580645 48.5483871"></polygon>
            <polygon id="Path" fill="#696969" points="37.8387097 22.3548387 39.2903226 37.483871 4.90322581 41.7096774"></polygon>
            <polygon id="Path" fill="#E31E24" points="39.516129 20.516129 54.6129032 3.38709677 41.7419355 33"></polygon>
            <polygon id="Path" fill="#0062AC" points="56.6774194 4.67741935 60.9354839 35.7419355 43.9032258 35.1935484"></polygon>
            <polygon id="Path" fill="#696969" points="59.0967742 11.3548387 78.483871 15.3548387 63.4193548 33.3548387"></polygon>
            <polygon id="Path" fill="#0062AC" points="60.7741935 5.29032258 67.4516129 11.9677419 63.9677419 11.0322581"></polygon>
            <polygon id="Path" fill="#0062AC" points="45 37.6129032 61.3225806 38 63.516129 54.8709677"></polygon>
            <polygon id="Path" fill="#696969" points="65.2580645 34.9032258 80.2258065 17.2580645 87.2903226 35.7419355"></polygon>
            <polygon id="Path" fill="#FFED00" points="64.0322581 37.483871 87.516129 38.2258065 80.5806452 55.7741935 64.483871 56.6129032"></polygon>
            <polygon id="Path" fill="#0062AC" points="87.516129 32 92.2258065 36.8709677 89.1935484 36.7741935"></polygon>
            <polygon id="Path" fill="#0062AC" points="88.3548387 38.9677419 92.9677419 38.9032258 89.9354839 53.8064516 85.4516129 46.2580645"></polygon>
            <polygon id="Path" fill="#0062AC" points="12.6451613 43.7096774 39.8387097 39.3548387 41.0967742 58.3548387 22.2903226 60.0967742"></polygon>
            <polygon id="Path" fill="#FFED00" points="42.8064516 39.8064516 61.6774194 57.1290323 43.6129032 58.7096774"></polygon>
            <polygon id="Path" fill="#FFED00" points="30.0322581 74.8387097 41.1290323 93.2580645 8 66.0967742"></polygon>
            <polygon id="Path" fill="#696969" points="23.8064516 62.4516129 41.1290323 61 43.5483871 95.483871"></polygon>
            <polygon id="Path" fill="#FFED00" points="44.8387097 81.0322581 55.7741935 90.4516129 45.4516129 95.5483871"></polygon>
            <polygon id="Path" fill="#E31E24" points="44.3225806 63.4516129 62.2258065 95.0967742 44.6774194 79.7741935"></polygon>
            <polygon id="Path" fill="#FFED00" points="62.7419355 59.3548387 63.8064516 93.1290323 45.6774194 60.3225806"></polygon>
            <polygon id="Path" fill="#696969" points="66.5483871 58.2903226 79.8387097 58.1290323 64.2903226 76.516129"></polygon>
        </g>
    </g>
</svg>