<?xml version="1.0" encoding="UTF-8"?>
<svg width="98px" height="100px" viewBox="0 0 98 100" version="1.1" xmlns="http://www.w3.org/2000/svg" xmlns:xlink="http://www.w3.org/1999/xlink">
    <title>axis_4</title>
    <g id="Page-1" stroke="none" stroke-width="1" fill="none" fill-rule="evenodd">
        <g id="axis_4" fill-rule="nonzero">
            <polygon id="Path" fill="#000000" points="22.5116279 73.5813953 0.162790698 36.3953488 41.6744186 0.139534884 83.7906977 16.5581395 96.7674419 58.0930233 59.1395349 98.2790698"></polygon>
            <polygon id="Path" fill="#FFED00" points="40.8372093 55.8139535 41.4418605 37.744186 59.5348837 37.8837209"></polygon>
            <polygon id="Path" fill="#FFED00" points="4.60465116 37.3023256 38.9302326 37.7209302 38.0232558 56.8604651"></polygon>
            <polygon id="Path" fill="#696969" points="62.372093 9.39534884 81.3488372 16.9534884 63.255814 34.2325581"></polygon>
            <polygon id="Path" fill="#696969" points="41.6046512 35.5116279 42.0930233 17.6744186 60.0232558 9.39534884 60.744186 35.8372093"></polygon>
            <polygon id="Path" fill="#696969" points="4.51162791 35.2790698 39.6511628 18.8139535 39.0930233 35.6744186"></polygon>
            <polygon id="Path" fill="#696969" points="42.1627907 15.9767442 42.4883721 1.93023256 58.8837209 8.09302326"></polygon>
            <polygon id="Path" fill="#696969" points="5.58139535 32.9302326 40.372093 2.41860465 39.7209302 17.1162791"></polygon>
            <polygon id="Path" fill="#EF7F1A" points="43.0465116 58.0697674 61.3023256 40.0697674 60.6511628 57.8372093"></polygon>
            <polygon id="Path" fill="#696969" points="65.2093023 36.3255814 83.0465116 18.8837209 88.744186 37.5581395"></polygon>
            <polygon id="Path" fill="#EF7F1A" points="41.9302326 60.9069767 60.255814 60.4186047 58.627907 93.7674419"></polygon>
            <polygon id="Path" fill="#EF7F1A" points="62.6046512 57.8372093 63.5116279 38.9302326 89.0465116 40.0697674 79.8837209 57.3488372"></polygon>
            <polygon id="Path" fill="#EF7F1A" points="62.1162791 60.255814 78.4186047 59.9302326 60.744186 93.2790698"></polygon>
            <polygon id="Path" fill="#EF7F1A" points="81.6046512 57.4186047 90.0232558 41.4418605 95.0697674 56.9302326"></polygon>
            <polygon id="Path" fill="#EF7F1A" points="80.5348837 59.627907 94 59.372093 62.8604651 92.4651163"></polygon>
            <polygon id="Path" fill="#009846" points="56.8139535 95.1860465 40.255814 78 40.372093 63.4418605"></polygon>
            <polygon id="Path" fill="#009846" points="21.9534884 58.7209302 38.1162791 60.744186 38.6046512 76.3255814"></polygon>
            <polygon id="Path" fill="#009846" points="3.39534884 39.255814 35.6744186 58.3953488 19.6976744 56.5348837"></polygon>
            <polygon id="Path" fill="#009846" points="40.2093023 84.9302326 40.3023256 79.3255814 55.627907 95.0697674"></polygon>
            <polygon id="Path" fill="#009846" points="38.7674419 83.7209302 13.9302326 57.5116279 20.1860465 58.3255814 38.4418605 77.3953488"></polygon>
            <polygon id="Path" fill="#009846" points="2.97674419 40.1395349 18.3023256 56.3023256 12.3953488 55.4883721"></polygon>
            <polygon id="Path" fill="#009846" points="22.7674419 73.1627907 14.5813953 59.3023256 36.6511628 82.4883721"></polygon>
        </g>
    </g>
</svg>